<svg xmlns="http://www.w3.org/2000/svg" viewBox="0 0 1000 1000"><rect width="1000" height="1000" fill="#FF4F2E"/><g transform="translate(190.0 599.5) scale(2.8080)"><path d="M24.2 0L6.3 0L6.3 -70.9L57.2 -70.9L57.2 -55.8L24.2 -55.8L24.2 -41.6L55.6 -41.6L55.6 -26.5L24.2 -26.5L24.2 0M80.4 0L62.6 0L62.6 -70.9L75.5 -70.9L99.6 -34.4L123.7 -70.9L136.6 -70.9L136.6 0L118.9 0L118.9 -36.3L105.4 -16L93.8 -16L80.4 -36.3L80.4 0M160.9 1.1L160.9 1.1Q153.9 1.1 148.85 -1.35Q143.8 -3.8 140 -8.3L140 -8.3L151.6 -19.8Q153.4 -17.3 155.85 -16.05Q158.3 -14.8 161.4 -14.8L161.4 -14.8Q164.1 -14.8 166.25 -15.95Q168.4 -17.1 169.65 -19.35Q170.9 -21.6 170.9 -25.1L170.9 -25.1L170.9 -70.9L188.8 -70.9L188.8 -25.9Q188.8 -17.5 185.45 -11.45Q182.1 -5.4 175.85 -2.15Q169.6 1.1 160.9 1.1" fill="#fff"/><path d="M2 18 Q2 4 18 2 Q16 18 2 18Z" transform="translate(186.8 -92.0) scale(1.700)" fill="#111111"/></g></svg>